<?xml version="1.0" encoding="utf-8"?>
<!-- Generator: Adobe Illustrator 23.0.2, SVG Export Plug-In . SVG Version: 6.00 Build 0)  -->
<svg version="1.1" id="Layer_1" xmlns="http://www.w3.org/2000/svg" xmlns:xlink="http://www.w3.org/1999/xlink" x="0px" y="0px"
	 viewBox="0 0 835.07 422.02" style="enable-background:new 0 0 835.07 422.02;" xml:space="preserve">
<style type="text/css">
	.st0{fill:#E86875;}
</style>
<g>
	<path class="st0" d="M743.43,237.51c-1.6-0.08-3.2-0.23-4.8-0.23c-180.81,0-361.63,0-542.44,0.01c-55.83,0-111.66-0.26-167.48,0.13
		c-23.36,0.16-34.16-21.67-26-37.71c5.34-10.51,14.31-14.8,25.73-14.8c42.83,0.01,85.66,0.01,128.49,0.01
		c168.32,0,336.63,0,504.95,0c25.5,0,50.99,0.01,76.49,0.01c1.9,0,3.81,0,5.71,0c0.27-0.51,0.54-1.01,0.8-1.52
		c-3.13-2.89-6.37-5.68-9.38-8.69c-43.02-43-86.01-86.03-129-129.06c-9.55-9.56-11.31-22.44-4.61-33.28
		c6.33-10.24,19.11-15.13,30.45-10.79c4.5,1.72,8.85,4.78,12.29,8.21C705.33,70.2,765.9,130.76,826.48,191.29
		c11.41,11.4,11.46,27.32,0.07,38.7c-61.17,61.13-122.35,122.25-183.53,183.37c-11.04,11.02-27.23,11.59-37.57,1.37
		c-11.03-10.89-10.93-26.79,0.55-38.29c44.61-44.71,89.3-89.34,133.99-133.97c1.29-1.29,2.96-2.19,4.45-3.27
		C744.1,238.63,743.77,238.07,743.43,237.51z"/>
</g>
</svg>
